PathFileType	4	(X/Y/Z)	S1_rest_slow_right.trc
DataRate	CameraRate	NumFrames	NumMarkers	Units	OrigDataRate	OrigDataStartFrame	OrigNumFrames
250.00	250.00	15	18	mm	250.00	21939	25073
Frame#	Time	c7	r_should	l_should	clavicle	r_upa	r_elb_l	r_elb_m	r_low	r_wri_l	r_wri_m	r_met	l_upa	l_elb_l	l_elb_m	l_low	l_wri_l	l_wri_m	l_met
	X1	Y1	Z1	X2	Y2	Z2	X3	Y3	Z3	X4	Y4	Z4	X5	Y5	Z5	X6	Y6	Z6	X7	Y7	Z7	X8	Y8	Z8	X9	Y9	Z9	X10	Y10	Z10	X11	Y11	Z11	X12	Y12	Z12	X13	Y13	Z13	X14	Y14	Z14	X15	Y15	Z15	X16	Y16	Z16	X17	Y17	Z17	X18	Y18	Z18
21939	87.75200	348.61804	1404.16968	6.96296	404.81366	1367.47595	169.70015	401.26703	1359.74011	-187.25305	512.32886	1321.63611	-11.72505	491.75430	1182.84680	226.93694	525.19391	1143.84717	235.09941	550.09174	1084.86340	141.54013	622.49652	1186.77686	188.58966	612.78119	1293.98743	202.55214	634.47943	1278.29272	132.02765	662.75775	1363.71069	214.47438	414.34360	1148.45886	-250.32193	429.59827	1069.72168	-270.69308	371.93332	1028.30981	-196.49443	435.33282	922.50311	-278.43039	539.31519	869.12225	-254.16068	478.89136	834.48254	-272.42941	580.63110	799.78528	-279.50861
21940	87.75600	348.61804	1404.16760	6.96273	404.80145	1367.46545	169.68752	401.26224	1359.76428	-187.26346	512.32721	1321.61890	-11.73957	491.72961	1182.82678	226.92680	525.15948	1143.81567	235.09909	550.05908	1084.82703	141.54758	622.46252	1186.75684	188.56604	612.71771	1293.96338	202.51727	634.43384	1278.25549	131.99568	662.69116	1363.71667	214.42644	414.32208	1148.47693	-250.35065	429.56866	1069.74634	-270.72357	371.90402	1028.33411	-196.53333	435.28802	922.52679	-278.48157	539.25653	869.12701	-254.23187	478.83200	834.49591	-272.50476	580.56232	799.78693	-279.57788
21941	87.76000	348.62265	1404.15979	6.95792	404.79584	1367.45190	169.67726	401.25717	1359.78650	-187.26947	512.31891	1321.60583	-11.75410	491.69806	1182.80029	226.92029	525.12189	1143.78210	235.10619	550.01129	1084.79309	141.52092	622.42188	1186.73022	188.55006	612.65625	1293.93811	202.47928	634.38306	1278.21753	131.95929	662.62512	1363.71301	214.38399	414.29691	1148.49768	-250.37709	429.53687	1069.76562	-270.76523	371.86874	1028.35144	-196.56816	435.23676	922.54547	-278.53348	539.19354	869.12762	-254.29842	478.76425	834.50665	-272.57220	580.49011	799.78400	-279.65302
21942	87.76400	348.62338	1404.14929	6.95994	404.78641	1367.43689	169.66646	401.25317	1359.80151	-187.27393	512.30554	1321.59253	-11.77319	491.66302	1182.77271	226.92229	525.07825	1143.74255	235.11308	549.95154	1084.75000	141.53853	622.37872	1186.69604	188.53546	612.59772	1293.91187	202.44156	634.32965	1278.17542	131.92822	662.55389	1363.70569	214.33916	414.27255	1148.51599	-250.41133	429.50333	1069.77515	-270.80356	371.83267	1028.36401	-196.60156	435.18170	922.56696	-278.58301	539.13190	869.12665	-254.36205	478.69992	834.51099	-272.63043	580.41949	799.77142	-279.72272
21943	87.76800	348.63046	1404.15918	6.95273	404.78110	1367.42126	169.66232	401.25357	1359.81628	-187.28415	512.29083	1321.57812	-11.78547	491.62857	1182.74866	226.93887	525.02997	1143.71753	235.12619	549.88739	1084.70728	141.55356	622.33478	1186.65576	188.51712	612.53906	1293.88367	202.41292	634.27863	1278.13330	131.89906	662.48285	1363.69641	214.30353	414.24698	1148.53174	-250.44882	429.46545	1069.79297	-270.84863	371.79767	1028.38782	-196.64227	435.12839	922.58801	-278.63104	539.07050	869.12408	-254.42589	478.64355	834.51770	-272.69244	580.34131	799.76031	-279.79684
21944	87.77200	348.63992	1404.15576	6.94680	404.78180	1367.40100	169.65347	401.25842	1359.83691	-187.29961	512.28741	1321.56799	-11.80038	491.59946	1182.72827	226.95238	524.98682	1143.69299	235.14810	549.83569	1084.65503	141.56769	622.29077	1186.62549	188.50288	612.48450	1293.85242	202.38513	634.22809	1278.08911	131.87392	662.40790	1363.68018	214.26219	414.22723	1148.55103	-250.48384	429.42984	1069.81616	-270.89813	371.76230	1028.40710	-196.67616	435.08179	922.59973	-278.67740	539.00885	869.12177	-254.48846	478.58185	834.52533	-272.75568	580.27466	799.75323	-279.86209
21945	87.77600	348.64322	1404.14404	6.93599	404.78540	1367.37805	169.64636	401.26486	1359.85205	-187.30701	512.27496	1321.56177	-11.82036	491.56702	1182.70032	226.96405	524.93439	1143.65027	235.15756	549.77570	1084.60071	141.58075	622.24127	1186.59106	188.49379	612.43066	1293.81934	202.35603	634.17725	1278.04175	131.85127	662.33887	1363.66199	214.22026	414.20642	1148.56982	-250.51591	429.39175	1069.83521	-270.94269	371.72842	1028.42908	-196.71365	435.03055	922.61194	-278.72641	538.94592	869.11755	-254.55302	478.51895	834.52948	-272.82178	580.20703	799.74689	-279.93042
21946	87.78000	348.64862	1404.13989	6.93731	404.78207	1367.35962	169.64612	401.27151	1359.86169	-187.31950	512.26776	1321.55066	-11.84661	491.52844	1182.66748	226.97688	524.87885	1143.61646	235.18159	549.72522	1084.52954	141.60669	622.19037	1186.55322	188.48497	612.37402	1293.78394	202.33472	634.12146	1277.98938	131.83307	662.27069	1363.63391	214.18217	414.19009	1148.58630	-250.54585	429.35812	1069.85620	-270.98602	371.69632	1028.45532	-196.75011	434.97711	922.62469	-278.77344	538.88428	869.11292	-254.61797	478.45908	834.53448	-272.88376	580.12878	799.74371	-280.00797
21947	87.78400	348.65823	1404.14050	6.93541	404.77399	1367.33936	169.64024	401.28238	1359.87256	-187.32401	512.26562	1321.52893	-11.86564	491.48602	1182.63892	226.98718	524.82953	1143.59143	235.19969	549.67175	1084.47913	141.62267	622.13428	1186.51538	188.48787	612.32538	1293.74365	202.30739	634.06293	1277.93384	131.80128	662.19257	1363.60596	214.12924	414.17087	1148.60120	-250.57715	429.32684	1069.87476	-271.03082	371.66519	1028.47217	-196.78717	434.92819	922.63428	-278.81671	538.81989	869.10254	-254.68355	478.39407	834.53717	-272.93976	580.05334	799.73071	-280.08047
21948	87.78800	348.66873	1404.13879	6.93026	404.77789	1367.31580	169.62849	401.29608	1359.88757	-187.33502	512.26178	1321.51294	-11.87562	491.44312	1182.61658	226.99675	524.77136	1143.55981	235.20580	549.62006	1084.41907	141.64400	622.06952	1186.47791	188.48700	612.27325	1293.70276	202.26888	634.00562	1277.88062	131.76636	662.11884	1363.57544	214.07837	414.15298	1148.62061	-250.61464	429.29013	1069.89832	-271.08862	371.63812	1028.49207	-196.83528	434.87329	922.64172	-278.86517	538.75659	869.09747	-254.75327	478.32248	834.55170	-273.00519	579.98370	799.72266	-280.14325
21949	87.79200	348.67957	1404.13904	6.91939	404.78024	1367.29395	169.61765	401.31113	1359.90588	-187.35097	512.25653	1321.50403	-11.88026	491.39987	1182.58716	226.99722	524.70959	1143.51953	235.21217	549.57690	1084.35864	141.66742	622.01379	1186.44092	188.48196	612.21399	1293.66199	202.24155	633.94434	1277.83105	131.73219	662.05286	1363.54712	214.04494	414.14337	1148.64331	-250.65532	429.25983	1069.91992	-271.13840	371.60629	1028.51904	-196.88359	434.81577	922.65350	-278.91226	538.69775	869.09747	-254.81927	478.25601	834.56061	-273.07053	579.91144	799.71161	-280.21497
21950	87.79600	348.68402	1404.14270	6.90055	404.77390	1367.27747	169.60779	401.32773	1359.92419	-187.36530	512.25537	1321.49268	-11.88868	491.35941	1182.56311	226.99643	524.65692	1143.48511	235.21959	549.51459	1084.30603	141.67551	621.95673	1186.41052	188.47699	612.15533	1293.62207	202.21353	633.88403	1277.78455	131.70467	661.99396	1363.52380	214.01917	414.13153	1148.66028	-250.68893	429.22821	1069.93945	-271.17743	371.57690	1028.54663	-196.93126	434.76324	922.66632	-278.95911	538.63550	869.10132	-254.88225	478.18503	834.57410	-273.13690	579.83673	799.69659	-280.28717
21951	87.80000	348.68918	1404.14941	6.88898	404.76868	1367.26282	169.59923	401.34344	1359.94800	-187.38525	512.25079	1321.47998	-11.89114	491.31448	1182.54333	226.99997	524.60236	1143.45618	235.21181	549.45471	1084.26160	141.68924	621.88971	1186.37549	188.47249	612.09308	1293.58301	202.18372	633.82208	1277.73950	131.68300	661.92126	1363.49121	213.98030	414.12009	1148.68604	-250.72202	429.20004	1069.96338	-271.20941	371.54166	1028.56848	-196.97623	434.70740	922.68420	-279.00415	538.56903	869.10236	-254.94229	478.10745	834.58868	-273.19736	579.76019	799.68896	-280.34836
21952	87.80400	348.70032	1404.15332	6.88424	404.75702	1367.24463	169.58655	401.36566	1359.97205	-187.39758	512.24487	1321.46777	-11.89102	491.27051	1182.52893	226.99055	524.54138	1143.42859	235.20172	549.39911	1084.23389	141.67661	621.82660	1186.34546	188.46561	612.02838	1293.54395	202.15593	633.76428	1277.69202	131.65929	661.84381	1363.45789	213.94431	414.10568	1148.71631	-250.75400	429.17389	1069.98669	-271.24405	371.50299	1028.58850	-197.01895	434.65137	922.70050	-279.05249	538.50671	869.10559	-254.99988	478.03702	834.60504	-273.25424	579.68555	799.70203	-280.40503
21953	87.80800	348.70819	1404.16101	6.87826	404.73944	1367.23254	169.57187	401.39331	1359.99585	-187.40613	512.24451	1321.44385	-11.88903	491.23621	1182.50793	226.97523	524.48047	1143.40222	235.19350	549.34314	1084.19873	141.66447	621.75812	1186.30676	188.45779	611.96344	1293.50830	202.12158	633.70789	1277.64319	131.63701	661.77942	1363.42957	213.90794	414.08850	1148.74487	-250.78496	429.14807	1070.00989	-271.28616	371.46857	1028.61523	-197.06940	434.59732	922.71661	-279.10037	538.44696	869.10822	-255.06183	477.96326	834.62073	-273.32111	579.61035	799.70306	-280.47034
